<?xml version="1.0" encoding="UTF-8"?>
<svg width="360px" height="78px" viewBox="0 0 360 78" version="1.1" xmlns="http://www.w3.org/2000/svg" xmlns:xlink="http://www.w3.org/1999/xlink">
    <!-- Generator: Sketch 42 (36781) - http://www.bohemiancoding.com/sketch -->
    <title>logo (1)</title>
    <desc>Created with Sketch.</desc>
    <defs></defs>
    <g id="Page-1" stroke="none" stroke-width="1" fill="none" fill-rule="evenodd">
        <g id="logo-(1)" fill-rule="nonzero" fill="#293B47">
            <g id="Group" transform="translate(140.000000, 65.000000)">
                <polygon id="Shape" points="6.9 5.8 6.9 7.6 2.4 7.6 2.4 10.6 7.4 10.6 7.4 12.4 0.5 12.4 0.5 1.3 7.3 1.3 7.3 3.1 2.4 3.1 2.4 5.8"></polygon>
                <path d="M16.1,8.9 C16,8.7 15.9,8.6 15.7,8.5 C15.5,8.4 15.3,8.3 15.1,8.2 C14.9,8.1 14.6,8 14.3,7.9 C13.9,7.8 13.5,7.6 13.1,7.4 C12.7,7.2 12.3,7 12,6.7 C11.7,6.4 11.4,6.1 11.2,5.7 C11,5.3 10.9,4.9 10.9,4.4 C10.9,4 11,3.6 11.2,3.2 C11.4,2.8 11.6,2.5 11.9,2.2 C12.2,1.9 12.6,1.7 13,1.5 C13.4,1.3 14,1.2 14.5,1.2 C14.9,1.2 15.3,1.3 15.7,1.4 C16.1,1.5 16.4,1.6 16.7,1.8 C17,2 17.3,2.2 17.5,2.4 C17.7,2.6 17.9,2.8 18.1,3 L16.8,4.3 C16.7,4.1 16.5,4 16.4,3.8 C16.3,3.6 16.1,3.5 15.9,3.4 C15.7,3.3 15.5,3.2 15.3,3.1 C15.1,3 14.8,3 14.6,3 C14.1,3 13.7,3.1 13.4,3.4 C13.1,3.7 12.9,4 12.9,4.4 C12.9,4.7 13,4.9 13.1,5.1 C13.2,5.3 13.4,5.4 13.7,5.6 C13.9,5.7 14.2,5.9 14.5,6 L15.4,6.3 C15.8,6.5 16.2,6.6 16.6,6.8 C17,7 17.3,7.2 17.6,7.5 C17.9,7.8 18.1,8.1 18.3,8.4 C18.5,8.7 18.6,9.2 18.6,9.6 C18.6,10.1 18.5,10.6 18.3,11 C18.1,11.4 17.8,11.7 17.5,12 C17.1,12.3 16.7,12.5 16.3,12.6 C15.8,12.7 15.4,12.8 14.8,12.8 C14.3,12.8 13.8,12.7 13.4,12.6 C13,12.5 12.6,12.3 12.2,12.1 C11.9,11.9 11.6,11.6 11.3,11.4 C11,11.2 10.8,10.8 10.6,10.6 L12,9.4 C12.1,9.6 12.3,9.8 12.5,10 C12.7,10.2 12.9,10.4 13.1,10.5 C13.3,10.7 13.6,10.8 13.9,10.9 C14.2,11 14.5,11.1 14.8,11.1 C15,11.1 15.2,11.1 15.5,11 C15.7,11 15.9,10.9 16.1,10.8 C16.3,10.7 16.4,10.6 16.5,10.4 C16.6,10.2 16.7,10 16.7,9.8 C16.2,9.3 16.2,9.1 16.1,8.9 Z" id="Shape"></path>
                <polygon id="Shape" points="20.7 3.1 20.7 1.3 28.8 1.3 28.8 3.1 25.7 3.1 25.7 12.5 23.8 12.5 23.8 3.1"></polygon>
                <path d="M30.8,10.5 C31,10.3 31.3,10.1 31.7,10.1 C32.1,10.1 32.4,10.2 32.6,10.5 C32.8,10.7 33,11 33,11.4 C33,11.8 32.9,12.1 32.6,12.3 C32.3,12.5 32.1,12.7 31.7,12.7 C31.3,12.7 31,12.6 30.8,12.3 C30.6,12.1 30.4,11.8 30.4,11.4 C30.4,11 30.6,10.8 30.8,10.5 Z" id="Shape"></path>
                <path d="M46.8,6.8 C46.9,6.6 47.1,6.4 47.2,6.2 C47.3,6 47.5,5.7 47.6,5.5 C47.7,5.2 47.7,5 47.7,4.7 C47.7,4.2 47.6,3.8 47.3,3.4 C47,3.1 46.6,2.9 46,2.9 C45.5,2.9 45.1,3.1 44.7,3.4 C44.4,3.7 44.1,4.1 44,4.6 L42.3,4 C42.4,3.7 42.6,3.3 42.8,3 C43,2.7 43.3,2.4 43.6,2.1 C43.9,1.8 44.3,1.6 44.7,1.5 C45.1,1.3 45.6,1.3 46.1,1.3 C46.7,1.3 47.2,1.4 47.6,1.6 C48,1.8 48.4,2 48.7,2.4 C49,2.7 49.2,3.1 49.4,3.5 C49.5,3.9 49.6,4.4 49.6,4.8 C49.6,5.1 49.6,5.5 49.5,5.8 C49.4,6.1 49.3,6.4 49.2,6.6 C49.1,6.8 49,7 48.9,7.2 C48.8,7.4 48.7,7.5 48.6,7.6 L46,10.9 L49.6,10.9 L49.6,12.7 L42.2,12.7 L46.3,7.5 C46.5,7.2 46.7,7 46.8,6.8 Z" id="Shape"></path>
                <path d="M58.7,1.6 C59.2,1.9 59.7,2.3 60,2.9 C60.3,3.5 60.6,4 60.8,4.7 C61,5.4 61.1,6.1 61.1,6.9 C61.1,7.7 61,8.4 60.8,9.1 C60.6,9.8 60.4,10.4 60,10.9 C59.6,11.4 59.2,11.9 58.7,12.2 C58.2,12.5 57.6,12.7 56.8,12.7 C56,12.7 55.5,12.5 54.9,12.2 C54.3,11.9 53.9,11.5 53.6,10.9 C53.3,10.3 53,9.8 52.8,9.1 C52.6,8.4 52.5,7.7 52.5,6.9 C52.5,6.1 52.6,5.4 52.8,4.7 C53,4 53.2,3.4 53.6,2.9 C54,2.4 54.4,1.9 54.9,1.6 C55.4,1.3 56.1,1.1 56.8,1.1 C57.5,1.1 58.2,1.3 58.7,1.6 Z M57.9,10.6 C58.2,10.4 58.4,10.1 58.6,9.7 C58.8,9.3 58.9,8.9 59,8.4 C59.1,7.9 59.1,7.4 59.1,6.9 C59.1,6.4 59.1,5.8 59,5.4 C58.9,5 58.8,4.5 58.6,4.1 C58.4,3.7 58.2,3.4 57.9,3.2 C57.6,3 57.3,2.9 56.9,2.9 C56.5,2.9 56.2,3 55.9,3.2 C55.6,3.4 55.4,3.7 55.2,4.1 C55,4.5 54.9,4.9 54.8,5.4 C54.7,5.9 54.7,6.4 54.7,6.9 C54.7,7.4 54.7,8 54.8,8.4 C54.9,8.8 55,9.3 55.2,9.7 C55.4,10.1 55.6,10.4 55.9,10.6 C56.2,10.8 56.5,10.9 56.9,10.9 C57.3,10.9 57.6,10.8 57.9,10.6 Z" id="Shape"></path>
                <polygon id="Shape" points="68.4 1.3 68.4 12.5 66.5 12.5 66.5 3.9 64.5 5.5 63.4 4.1 66.8 1.4"></polygon>
                <path d="M75.8,5.1 L76.1,5.1 C76.6,5.1 77.1,5.2 77.6,5.4 C78.1,5.6 78.5,5.9 78.8,6.3 C79.1,6.7 79.4,7.1 79.6,7.5 C79.8,8 79.9,8.4 79.9,8.9 C79.9,9.4 79.8,9.8 79.6,10.3 C79.4,10.8 79.2,11.2 78.8,11.5 C78.4,11.8 78,12.1 77.6,12.4 C77.1,12.6 76.6,12.7 76,12.7 C75.4,12.7 74.9,12.6 74.4,12.4 C73.9,12.2 73.5,11.9 73.2,11.6 C72.9,11.2 72.6,10.8 72.4,10.4 C72.2,10 72.1,9.5 72.1,9 C72.1,8.5 72.2,8.1 72.3,7.7 C72.4,7.3 72.6,7 72.7,6.7 L73.1,6.1 L73.9,4.8 L75,3 L76.2,0.9 L77.8,1.9 L75.7,5.3 C75.7,5.1 75.7,5.1 75.8,5.1 Z M75.1,7 C74.9,7.1 74.6,7.2 74.5,7.4 C74.3,7.6 74.2,7.8 74.1,8 C74,8.2 73.9,8.5 73.9,8.8 C73.9,9.1 73.9,9.4 74.1,9.6 C74.2,9.8 74.3,10.1 74.5,10.2 C74.7,10.4 74.9,10.5 75.1,10.6 C75.3,10.7 75.6,10.7 75.9,10.7 C76.2,10.7 76.4,10.7 76.7,10.6 C76.9,10.5 77.2,10.4 77.3,10.2 C77.5,10 77.6,9.8 77.7,9.6 C77.8,9.4 77.9,9.1 77.9,8.8 C77.9,8.5 77.8,8.2 77.7,8 C77.6,7.7 77.5,7.5 77.3,7.4 C77.1,7.2 76.9,7.1 76.7,7 C76.5,6.9 76.2,6.9 75.9,6.9 C75.6,6.9 75.3,6.9 75.1,7 Z" id="Shape"></path>
            </g>
            <g id="Group">
                <path d="M23.4,56.2 L17,58 C16.6,58.1 16.1,58 15.9,57.6 L1,28.6 C0.8,28.2 0.9,27.6 1.7,27.4 L6.3,26.1 C6.7,26 7.1,26.1 7.4,26.5 L17,45.8 C17.1,46 17.2,46.1 17.4,46 L17.7,45.9 C17.9,45.8 17.9,45.7 17.9,45.5 L15.2,24.3 C15.2,23.8 15.5,23.5 15.9,23.4 L20.1,22.2 C20.5,22.1 21,22.2 21.2,22.6 L30,42.1 C30.1,42.3 30.2,42.4 30.4,42.3 L30.7,42.2 C30.9,42.1 31,42 30.9,41.8 L28.9,20.4 C28.8,19.9 29.2,19.6 29.6,19.5 L34.2,18.2 C34.9,18 35.3,18.4 35.4,18.9 L37.9,51.4 C37.9,51.9 37.6,52.2 37.2,52.3 L30.8,54.1 C30.4,54.2 29.9,54.1 29.7,53.7 L22.9,39.4 C22.7,39 22.3,39.2 22.3,39.6 L24,55.3 C24.1,55.7 23.8,56.1 23.4,56.2 Z" id="Shape"></path>
                <path d="M55,46.9 C55.1,47.4 54.8,47.9 54.3,48.1 L49.6,49.2 C49.1,49.3 48.6,49 48.4,48.5 L41.1,17.7 C41,17.2 41.3,16.7 41.8,16.5 L46.5,15.4 C47,15.3 47.5,15.6 47.7,16.1 L55,46.9 Z" id="Shape"></path>
                <path d="M76.6,43.4 C75.8,43.6 75.4,43.2 75.2,42.8 L65.6,27.5 C65.4,27.2 65.1,27.4 65.2,27.7 L68.3,44 C68.4,44.5 68.1,45 67.5,45.1 L62.8,46 C62.3,46.1 61.8,45.8 61.7,45.2 L55.6,14.1 C55.5,13.6 55.8,13.1 56.4,13 L62,12 C62.7,11.9 63.1,12.2 63.3,12.6 L73.3,29.2 C73.4,29.5 73.8,29.3 73.7,29 L70.2,11.3 C70.1,10.8 70.4,10.3 71,10.2 L75.7,9.3 C76.2,9.2 76.7,9.5 76.8,10.1 L83,41.2 C83.1,41.7 82.8,42.2 82.2,42.3 L76.6,43.4 Z" id="Shape"></path>
                <path d="M96,6.2 C101.8,5.4 106.6,9.6 108.1,15.2 C109.1,19.1 109.8,23.4 109.9,27.5 C110.1,33.3 106.7,38.7 100.8,39.5 L90.8,40.9 C90.3,41 89.8,40.6 89.7,40.1 L85.2,8.7 C85.1,8.2 85.5,7.7 86,7.6 L96,6.2 Z M93.2,13.4 C92.9,13.4 92.8,13.7 92.8,13.9 L95.5,32.9 C95.5,33.2 95.8,33.3 96,33.3 L99.8,32.8 C102,32.5 103.2,30.5 103.1,28.4 C103,24.3 102.4,20.1 101.3,16.1 C100.8,14 99,12.5 96.9,12.8 L93.2,13.4 Z" id="Shape"></path>
                <path d="M130.3,24.2 C130.4,24.5 130.8,24.5 130.9,24.2 L134.2,2.8 C134.3,2.2 134.6,1.9 135.1,1.9 L142.1,1.3 C142.6,1.3 143.1,1.6 143.1,2.2 L145.8,33.8 C145.8,34.3 145.5,34.8 144.9,34.8 L140.7,35.2 C140.2,35.2 139.7,34.9 139.7,34.3 L138.1,16.3 C138.1,16 137.7,15.9 137.7,16.2 L134.4,34.9 C134.3,35.5 134,35.8 133.5,35.8 L129.7,36.1 C129.2,36.1 128.8,35.9 128.6,35.4 L122.2,17.5 C122.1,17.2 121.8,17.3 121.8,17.6 L123.4,35.6 C123.4,36.1 123.1,36.6 122.5,36.6 L118.3,37 C117.8,37 117.3,36.7 117.3,36.1 L114.6,4.5 C114.6,4 114.9,3.5 115.5,3.5 L122.6,2.9 C123.1,2.9 123.5,3.1 123.7,3.6 L130.3,24.2 Z" id="Shape"></path>
                <path d="M159.6,33.2 C159.6,33.7 159.2,34.2 158.7,34.2 L153.9,34.4 C153.4,34.4 152.9,34 152.9,33.5 L151.6,1.8 C151.6,1.3 152,0.8 152.5,0.8 L157.3,0.6 C157.8,0.6 158.3,1 158.3,1.5 L159.6,33.2 Z" id="Shape"></path>
                <path d="M173.2,26.7 C173.2,27 173.4,27.2 173.7,27.2 L183.8,27.1 C184.3,27.1 184.8,27.5 184.8,28.1 L184.8,32.9 C184.8,33.4 184.4,33.9 183.8,33.9 L167.5,34.1 C167,34.1 166.5,33.7 166.5,33.1 L166.2,1.4 C166.2,0.9 166.6,0.4 167.2,0.4 L172,0.4 C172.5,0.4 173,0.8 173,1.4 L173.2,26.7 Z" id="Shape"></path>
                <path d="M196.3,26.8 C196.3,27.1 196.5,27.3 196.8,27.3 L206.9,27.6 C207.4,27.6 207.8,28.1 207.8,28.6 L207.7,33.4 C207.7,33.9 207.2,34.3 206.7,34.3 L190.4,33.8 C189.9,33.8 189.5,33.3 189.5,32.8 L190.4,1.1 C190.4,0.6 190.9,0.2 191.4,0.2 L196.2,0.3 C196.7,0.3 197.1,0.8 197.1,1.3 L196.3,26.8 Z" id="Shape"></path>
                <path d="M241.5,25 C241.5,24.7 241.4,24.5 241.1,24.5 L237.9,24.2 C237.4,24.1 237,23.7 237,23.2 L237.4,18.7 C237.5,18.2 237.9,17.8 238.4,17.8 L247.7,18.7 C248.2,18.8 248.6,19.2 248.6,19.7 L247.8,27.7 C247.2,33.4 241.9,37.7 235.4,37 C228.8,36.4 225.2,31.1 225.1,25.3 C225,21.2 225.5,15.9 226.4,11.9 C227.6,6.2 232.2,1.8 238.8,2.5 C245.4,3.2 249.7,8.2 249.1,14.5 L249.1,14.5 C249.1,15 248.6,15.4 248.1,15.4 L243.3,14.9 C242.8,14.8 242.4,14.4 242.4,13.9 L242.4,13.9 C242.6,11.9 241.1,9.6 238.1,9.3 C235.2,9 233.5,10.6 233.1,12.7 C232.2,16.7 231.7,22 231.8,26.1 C231.8,28.2 233.1,30.1 236.1,30.4 C239,30.7 241.1,29.3 241.3,27.1 L241.5,25 Z" id="Shape"></path>
                <path d="M261.9,26.2 C261.6,26.2 261.4,26.3 261.4,26.6 L259.6,38.5 C259.5,39 259,39.4 258.5,39.3 L253.8,38.6 C253.3,38.5 252.9,38 253,37.5 L257.7,6.2 C257.8,5.7 258.3,5.3 258.8,5.4 L269.2,7 C274.7,7.8 278.5,13 277.7,18.5 C277.2,22.2 275.2,24.4 271.5,26.2 C270.8,26.6 270.8,27 271,27.7 L274.3,40.3 C274.5,41.1 274.1,41.7 273.2,41.6 L268.3,40.9 C267.5,40.8 267.2,40.3 267.1,39.7 L264,27.3 C263.9,27 263.8,26.6 263.2,26.6 L261.9,26.2 Z M263.9,12.9 C263.6,12.9 263.4,13 263.4,13.3 L262.5,19 C262.5,19.3 262.6,19.5 262.9,19.5 L267.2,20.1 C269,20.4 270.7,19.1 271,17.3 C271.3,15.5 270,13.8 268.2,13.5 L263.9,12.9 Z" id="Shape"></path>
                <path d="M287.7,36.9 C287.6,37.2 287.8,37.4 288.1,37.5 L299.3,39.7 C299.8,39.8 300.2,40.3 300.1,40.8 L299.2,45.5 C299.1,46 298.6,46.4 298.1,46.3 L280.8,42.9 C280.3,42.8 279.9,42.3 280,41.8 L286.1,10.7 C286.2,10.2 286.7,9.8 287.2,9.9 L304.3,13.3 C304.8,13.4 305.2,13.9 305.1,14.4 L304.2,19.1 C304.1,19.6 303.6,20 303.1,19.9 L292.1,17.7 C291.8,17.6 291.6,17.8 291.5,18.1 L290.4,23.8 C290.3,24.1 290.5,24.3 290.8,24.4 L301.4,26.5 C301.9,26.6 302.3,27.1 302.2,27.6 L301.3,32.3 C301.2,32.8 300.7,33.2 300.2,33.1 L289.6,31 C289.3,30.9 289.1,31.1 289,31.4 L287.7,36.9 Z" id="Shape"></path>
                <path d="M312.9,42.3 C312.8,42.6 313,42.8 313.3,42.9 L324.3,45.6 C324.8,45.7 325.1,46.2 325,46.8 L323.9,51.5 C323.8,52 323.3,52.3 322.7,52.2 L305.6,48 C305.1,47.9 304.8,47.4 304.9,46.8 L312.5,16 C312.6,15.5 313.1,15.2 313.7,15.3 L330.6,19.5 C331.1,19.6 331.4,20.1 331.3,20.7 L330.2,25.4 C330.1,25.9 329.6,26.2 329,26.1 L318.1,23.4 C317.8,23.3 317.6,23.5 317.5,23.8 L316.1,29.4 C316,29.7 316.2,29.9 316.5,30 L327,32.6 C327.5,32.7 327.8,33.2 327.7,33.8 L326.6,38.5 C326.5,39 326,39.3 325.4,39.2 L314.9,36.6 C314.6,36.5 314.4,36.7 314.3,37 L312.9,42.3 Z" id="Shape"></path>
                <path d="M343.7,58.2 C342.9,58 342.7,57.5 342.7,57 L341.3,39 C341.3,38.7 340.9,38.7 340.9,39 L336,54.9 C335.8,55.4 335.3,55.7 334.8,55.5 L330.2,54.1 C329.7,53.9 329.4,53.4 329.6,52.9 L338.7,22.5 C338.9,22 339.4,21.7 339.9,21.9 L345.4,23.5 C346.1,23.7 346.3,24.2 346.3,24.7 L347.4,44.1 C347.4,44.4 347.8,44.4 347.8,44.1 L353,26.8 C353.2,26.3 353.7,26 354.2,26.2 L358.8,27.6 C359.3,27.8 359.6,28.3 359.4,28.8 L350.3,59.2 C350.1,59.7 349.6,60 349.1,59.8 L343.7,58.2 Z" id="Shape"></path>
            </g>
        </g>
    </g>
</svg>